Maniax_Header:
	sHeaderInit
	sHeaderPatch	Maniax_Patches
	sHeaderCh	$02, $00
	sHeaderTempo	$02, $08
	sHeaderDAC	Maniax_DAC
	sHeaderFM	Maniax_FM1, $00, $0B

Maniax_FM1:
	sPatFM		$00
	sPan		spCenter
	dc.b nCs3, $03, nRst, $03, nFs2, $03, nRst, $09
	dc.b nFs2, $03, nRst, $09, nFs2, $03, nRst, $09
	dc.b nFs2, $03, nRst, $09, nFs2, $03, nRst, $09
	dc.b nFs2, $03, nRst, $09, nFs2, $03, nRst, $09
	dc.b nFs2, $03, nRst, $09, nFs2, $03, nRst, $09
	dc.b nFs2, $03, nRst, $09, nFs2, $03, nRst, $09
	dc.b nFs2, $03, nRst, $09, nFs2, $03, nRst, $09
	dc.b nFs2, $03, nRst, $1B, nCs3, $03, nRst, $03
	dc.b nFs2, $03, nRst, $03, nB3, $03, nRst, $03
	dc.b nFs2, $03, nRst, $03, nB3, $03, nRst, $03
	dc.b nFs2, $03, nRst, $03, nB3, $03, nRst, $03
	dc.b nFs2, $03, nRst, $09, nFs2, $03, nRst, $03
	dc.b nB3, $03, nRst, $03, nFs2, $03, nRst, $03
	dc.b nB3, $03, nRst, $03, nFs2, $03, nRst, $03
	dc.b nB3, $03, nRst, $03, nFs2, $03, nRst, $03
	dc.b nCs3, $03, nRst, $03, nFs2, $03, nRst, $03
	dc.b nB3, $03, nRst, $03, nFs2, $03, nRst, $03
	dc.b nB3, $03, nRst, $03, nFs2, $03, nRst, $03
	dc.b nB3, $03, nRst, $03, nFs2, $03, nRst, $33

Maniax_Jump1:
	dc.b nAb2, $03, nAb2, $03, nAb2, $03, nAb2, $03
	dc.b nBb2, $03, nAb2, $03, nAb2, $03, nBb2, $03
	dc.b nAb2, $03, nAb2, $03, nAb2, $03, nAb2, $03
	dc.b nBb2, $03, nAb2, $03, nBb2, $03, nAb2, $03
	dc.b nAb2, $03, nAb2, $03, nAb2, $03, nAb2, $03
	dc.b nBb2, $03, nAb2, $03, nAb2, $03, nBb2, $03
	dc.b nAb2, $03, nAb2, $03, nAb2, $03, nAb2, $03
	dc.b nBb2, $03, nAb2, $03, nBb2, $03, nAb2, $03
	dc.b nAb2, $03, nAb2, $03, nAb2, $03, nAb2, $03
	dc.b nBb2, $03, nAb2, $03, nAb2, $03, nBb2, $03
	dc.b nAb2, $03, nAb2, $03, nAb2, $03, nAb2, $03
	dc.b nBb2, $03, nAb2, $03, nBb2, $03, nAb2, $03
	dc.b nAb2, $03, nAb2, $03, nAb2, $03, nAb2, $03
	dc.b nBb2, $03, nAb2, $03, nAb2, $03, nBb2, $03
	dc.b nAb2, $03, nAb2, $03, nAb2, $03, nBb2, $03
	dc.b nAb2, $03, nAb2, $03, nAb2, $03, nBb2, $03
	dc.b nAb2, $03, nAb2, $03, nAb2, $03, nAb2, $03
	dc.b nBb2, $03, nAb2, $03, nAb2, $03, nBb2, $03
	dc.b nAb2, $03, nAb2, $03, nAb2, $03, nAb2, $03
	dc.b nBb2, $03, nAb2, $03, nBb2, $03, nAb2, $03
	dc.b nAb2, $03, nAb2, $03, nAb2, $03, nAb2, $03
	dc.b nBb2, $03, nAb2, $03, nAb2, $03, nBb2, $03
	dc.b nAb2, $03, nAb2, $03, nAb2, $03, nAb2, $03
	dc.b nBb2, $03, nAb2, $03, nBb2, $03, nAb2, $03
	dc.b nAb2, $03, nAb2, $03, nAb2, $03, nAb2, $03
	dc.b nBb2, $03, nAb2, $03, nAb2, $03, nBb2, $03
	dc.b nAb2, $03, nAb2, $03, nAb2, $03, nAb2, $03
	dc.b nBb2, $03, nAb2, $03, nBb2, $03, nAb2, $03
	dc.b nAb2, $03, nAb2, $03, nAb2, $03, nAb2, $03
	dc.b nBb2, $03, nAb2, $03, nAb2, $03, nBb2, $03
	dc.b nAb2, $03, nAb2, $03, nAb2, $03, nAb2, $03
	dc.b nBb2, $03, nRst, $09, nAb2, $03, nAb2, $03
	dc.b nAb2, $03, nAb2, $03, nBb2, $03, nAb2, $03
	dc.b nAb2, $03, nBb2, $03, nAb2, $03, nAb2, $03
	dc.b nAb2, $03, nAb2, $03, nBb2, $03, nAb2, $03
	dc.b nBb2, $03, nAb2, $03, nAb2, $03, nAb2, $03
	dc.b nAb2, $03, nAb2, $03, nBb2, $03, nAb2, $03
	dc.b nAb2, $03, nBb2, $03, nAb2, $03, nAb2, $03
	dc.b nAb2, $03, nAb2, $03, nBb2, $03, nAb2, $03
	dc.b nBb2, $03, nAb2, $03, nAb2, $03, nAb2, $03
	dc.b nAb2, $03, nAb2, $03, nBb2, $03, nAb2, $03
	dc.b nAb2, $03, nBb2, $03, nAb2, $03, nAb2, $03
	dc.b nAb2, $03, nAb2, $03, nBb2, $03, nAb2, $03
	dc.b nBb2, $03, nAb2, $03, nAb2, $03, nAb2, $03
	dc.b nAb2, $03, nAb2, $03, nBb2, $03, nAb2, $03
	dc.b nAb2, $03, nBb2, $03, nAb2, $03, nAb2, $03
	dc.b nAb2, $03, nAb2, $03, nBb2, $03, nAb2, $03
	dc.b nBb2, $03, nAb2, $03, nAb2, $03, nAb2, $03
	dc.b nAb2, $03, nAb2, $03, nBb2, $03, nAb2, $03
	dc.b nAb2, $03, nBb2, $03, nAb2, $03, nAb2, $03
	dc.b nAb2, $03, nAb2, $03, nBb2, $03, nAb2, $03
	dc.b nBb2, $03, nAb2, $03, nAb2, $03, nAb2, $03
	dc.b nAb2, $03, nAb2, $03, nBb2, $03, nAb2, $03
	dc.b nAb2, $03, nBb2, $03, nAb2, $03, nAb2, $03
	dc.b nAb2, $03, nAb2, $03, nBb2, $03, nAb2, $03
	dc.b nBb2, $03, nAb2, $03, nAb2, $03, nAb2, $03
	dc.b nAb2, $03, nAb2, $03, nBb2, $03, nAb2, $03
	dc.b nAb2, $03, nBb2, $03, nAb2, $03, nAb2, $03
	dc.b nAb2, $03, nAb2, $03, nBb2, $03, nAb2, $03
	dc.b nBb2, $03, nAb2, $03, nRst, $30, nAb2, $03
	dc.b nAb2, $03, nAb2, $03, nAb2, $03, nBb2, $03
	dc.b nAb2, $03, nAb2, $03, nBb2, $03, nAb2, $03
	dc.b nAb2, $03, nAb2, $03, nAb2, $03, nBb2, $03
	dc.b nAb2, $03, nBb2, $03, nAb2, $03, nAb2, $03
	dc.b nAb2, $03, nAb2, $03, nAb2, $03, nBb2, $03
	dc.b nAb2, $03, nAb2, $03, nBb2, $03, nAb2, $03
	dc.b nAb2, $03, nAb2, $03, nAb2, $03, nBb2, $03
	dc.b nAb2, $03, nBb2, $03, nAb2, $03, nAb2, $03
	dc.b nAb2, $03, nAb2, $03, nAb2, $03, nBb2, $03
	dc.b nAb2, $03, nAb2, $03, nBb2, $03, nAb2, $03
	dc.b nAb2, $03, nAb2, $03, nAb2, $03, nBb2, $03
	dc.b nAb2, $03, nBb2, $03, nAb2, $03, nAb2, $03
	dc.b nAb2, $03, nAb2, $03, nAb2, $03, nBb2, $03
	dc.b nAb2, $03, nAb2, $03, nBb2, $03, nAb2, $03
	dc.b nAb2, $03, nAb2, $03, nAb2, $03, nBb2, $03
	dc.b nAb2, $03, nBb2, $03, nAb2, $03, nAb2, $03
	dc.b nAb2, $03, nAb2, $03, nAb2, $03, nBb2, $03
	dc.b nAb2, $03, nAb2, $03, nBb2, $03, nAb2, $03
	dc.b nAb2, $03, nAb2, $03, nAb2, $03, nBb2, $03
	dc.b nAb2, $03, nBb2, $03, nAb2, $03, nAb2, $03
	dc.b nAb2, $03, nAb2, $03, nAb2, $03, nBb2, $03
	dc.b nAb2, $03, nAb2, $03, nBb2, $03, nAb2, $03
	dc.b nAb2, $03, nAb2, $03, nAb2, $03, nBb2, $03
	dc.b nAb2, $03, nBb2, $03, nAb2, $03, nAb2, $03
	dc.b nAb2, $03, nAb2, $03, nAb2, $03, nBb2, $03
	dc.b nAb2, $03, nAb2, $03, nBb2, $03, nAb2, $03
	dc.b nAb2, $03, nAb2, $03, nAb2, $03, nBb2, $03
	dc.b nAb2, $03, nBb2, $03, nAb2, $03, nRst, $30
	dc.b nAb2, $03, nAb2, $03, nBb2, $03, nAb2, $03
	dc.b nAb2, $03, nAb2, $03, nBb2, $03, nAb2, $03
	dc.b nAb2, $03, nAb2, $03, nBb2, $03, nAb2, $03
	dc.b nAb2, $03, nAb2, $03, nBb2, $03, nAb2, $03
	dc.b nAb2, $03, nAb2, $03, nBb2, $03, nAb2, $03
	dc.b nAb2, $03, nAb2, $03, nBb2, $03, nAb2, $03
	dc.b nAb2, $03, nAb2, $03, nBb2, $03, nAb2, $03
	dc.b nAb2, $03, nAb2, $03, nBb2, $03, nAb2, $03
	dc.b nAb2, $03, nAb2, $03, nBb2, $03, nAb2, $03
	dc.b nAb2, $03, nAb2, $03, nBb2, $03, nAb2, $03
	dc.b nAb2, $03, nAb2, $03, nBb2, $03, nAb2, $03
	dc.b nAb2, $03, nAb2, $03, nBb2, $03, nAb2, $03
	dc.b nAb2, $03, nAb2, $03, nBb2, $03, nAb2, $03
	dc.b nAb2, $03, nAb2, $03, nBb2, $03, nAb2, $03
	dc.b nAb2, $03, nAb2, $03, nBb2, $03, nAb2, $03
	dc.b nAb2, $03, nAb2, $03, nBb2, $03, nAb2, $03
	dc.b nAb2, $03, nAb2, $03, nBb2, $03, nAb2, $03
	dc.b nAb2, $03, nAb2, $03, nBb2, $03, nAb2, $03
	dc.b nAb2, $03, nAb2, $03, nBb2, $03, nAb2, $03
	dc.b nAb2, $03, nAb2, $03, nBb2, $03, nAb2, $03
	dc.b nAb2, $03, nAb2, $03, nBb2, $03, nAb2, $03
	dc.b nAb2, $03, nAb2, $03, nBb2, $03, nAb2, $03
	dc.b nAb2, $03, nAb2, $03, nBb2, $03, nAb2, $03
	dc.b nAb2, $03, nAb2, $03, nBb2, $03, nAb2, $03
	dc.b nAb2, $03, nAb2, $03, nBb2, $03, nAb2, $03
	dc.b nAb2, $03, nAb2, $03, nBb2, $03, nAb2, $03
	dc.b nAb2, $03, nAb2, $03, nBb2, $03, nAb2, $03
	dc.b nAb2, $03, nAb2, $03, nBb2, $03, nAb2, $03
	dc.b nAb2, $03, nAb2, $03, nBb2, $03, nAb2, $03
	dc.b nAb2, $03, nAb2, $03, nBb2, $03, nAb2, $03
	dc.b nAb2, $03, nAb2, $03, nBb2, $03, nAb2, $03
	dc.b nAb2, $03, nAb2, $03, nBb2, $03, nAb2, $03
	dc.b nAb2, $03, nAb2, $03, nBb2, $03, nAb2, $03
	dc.b nAb2, $03, nAb2, $03, nBb2, $03, nAb2, $03
	dc.b nAb2, $03, nAb2, $03, nBb2, $03, nAb2, $03
	dc.b nAb2, $03, nAb2, $03, nBb2, $03, nAb2, $03
	dc.b nAb2, $03, nAb2, $03, nBb2, $03, nAb2, $03
	dc.b nAb2, $03, nAb2, $03, nBb2, $03, nAb2, $03
	dc.b nAb2, $03, nAb2, $03, nBb2, $03, nAb2, $03
	dc.b nAb2, $03, nAb2, $03, nBb2, $03, nAb2, $03
	dc.b nAb2, $03, nAb2, $03, nBb2, $03, nAb2, $03
	dc.b nAb2, $03, nAb2, $03, nBb2, $03, nAb2, $03
	dc.b nAb2, $03, nAb2, $03, nBb2, $03, nAb2, $03
	dc.b nAb2, $03, nAb2, $03, nBb2, $03, nAb2, $03
	dc.b nAb2, $03, nAb2, $03, nBb2, $03, nAb2, $03
	dc.b nAb2, $03, nAb2, $03, nBb2, $03, nAb2, $03
	dc.b nAb2, $03, nAb2, $03, nBb2, $03, nAb2, $03
	dc.b nAb2, $03, nAb2, $03, nBb2, $03, nAb2, $03
	dc.b nAb2, $03, nAb2, $03, nBb2, $03, nAb2, $03
	dc.b nAb2, $03, nAb2, $03, nBb2, $03, nAb2, $03
	dc.b nAb2, $03, nAb2, $03, nBb2, $03, nAb2, $03
	dc.b nAb2, $03, nAb2, $03, nBb2, $03, nAb2, $03
	dc.b nAb2, $03, nAb2, $03, nBb2, $03, nAb2, $03
	dc.b nAb2, $03, nAb2, $03, nBb2, $03, nAb2, $03
	dc.b nAb2, $03, nAb2, $03, nBb2, $03, nAb2, $03
	dc.b nAb2, $03, nAb2, $03, nBb2, $03, nAb2, $03
	dc.b nAb2, $03, nAb2, $03, nBb2, $03, nAb2, $03
	dc.b nAb2, $03, nAb2, $03, nBb2, $03, nAb2, $03
	dc.b nAb2, $03, nAb2, $03, nBb2, $03, nAb2, $03
	dc.b nAb2, $03, nAb2, $03, nBb2, $03, nAb2, $03
	dc.b nAb2, $03, nAb2, $03, nBb2, $03, nAb2, $03
	dc.b nAb2, $03, nAb2, $03, nBb2, $03, nAb2, $03
	dc.b nAb2, $03, nAb2, $03, nBb2, $03, nAb2, $03
	dc.b nAb2, $03, nAb2, $03, nBb2, $03, nAb2, $03
	dc.b nAb2, $03, nAb2, $03, nAb2, $03, nAb2, $03
	dc.b nAb2, $03, nAb2, $03, nAb2, $03, nAb2, $03
	dc.b nAb2, $03, nAb2, $03, nAb2, $03, nAb2, $03
	dc.b nAb2, $03, nAb2, $03, nAb2, $03, nAb2, $03
	dc.b nAb2, $03, nAb2, $03, nAb2, $03, nAb2, $03
	dc.b nAb2, $03, nAb2, $03, nAb2, $03, nAb2, $03
	dc.b nAb2, $03, nAb2, $03, nAb2, $03, nAb2, $03
	dc.b nAb2, $03, nAb2, $03, nAb2, $03, nAb2, $03
	dc.b nAb2, $03, nAb2, $03, nAb2, $03, nAb2, $03
	dc.b nAb2, $03, nAb2, $03, nAb2, $03, nAb2, $03
	dc.b nAb2, $03, nAb2, $03, nAb2, $03, nAb2, $03
	dc.b nAb2, $03, nAb2, $03, nAb2, $03, nAb2, $03
	dc.b nAb2, $03, nAb2, $03, nAb2, $03, nAb2, $03
	dc.b nAb2, $03, nAb2, $03, nAb2, $03, nAb2, $03
	dc.b nAb2, $03, nAb2, $03, nAb2, $03, nAb2, $03
	dc.b nAb2, $03, nAb2, $03, nAb2, $03, nAb2, $03
	dc.b nFs2, $0C, nFs2, $0C, nFs2, $0C, nFs2, $03
	dc.b nAb2, $03, nFs2, $03, nAb2, $03, nFs2, $0C
	dc.b nFs2, $0C, nFs2, $0C, nFs2, $03, nAb2, $03
	dc.b nFs2, $03, nAb2, $03, nFs2, $0C, nFs2, $0C
	dc.b nFs2, $0C, nFs2, $03, nAb2, $03, nFs2, $03
	dc.b nAb2, $03, nFs2, $0C, nFs2, $0C, nFs2, $0C
	dc.b nFs2, $03, nAb2, $03, nFs2, $03, nAb2, $03
	dc.b nAb2, $03, nAb2, $03, nAb2, $03, nAb2, $03
	dc.b nAb2, $03, nAb2, $03, nAb2, $03, nAb2, $03
	dc.b nAb2, $03, nAb2, $03, nAb2, $03, nAb2, $03
	dc.b nAb2, $03, nAb2, $03, nAb2, $03, nAb2, $03
	dc.b nAb2, $03, nAb2, $03, nAb2, $03, nAb2, $03
	dc.b nAb2, $03, nAb2, $03, nAb2, $03, nAb2, $03
	dc.b nAb2, $03, nAb2, $03, nAb2, $03, nAb2, $03
	dc.b nAb2, $03, nAb2, $03, nAb2, $03, nAb2, $03
	dc.b nAb2, $03, nAb2, $03, nAb2, $03, nAb2, $03
	dc.b nAb2, $03, nAb2, $03, nAb2, $03, nAb2, $03
	dc.b nAb2, $03, nAb2, $03, nAb2, $03, nAb2, $03
	dc.b nAb2, $03, nAb2, $03, nAb2, $03, nAb2, $03
	dc.b nRst, $30
	sJump		Maniax_Jump1

Maniax_DAC:
	sStop

Maniax_Patches:
